<?xml version="1.0" encoding="utf-8"?>
<!-- Generator: Adobe Illustrator 21.0.0, SVG Export Plug-In . SVG Version: 6.00 Build 0)  -->
<svg version="1.1" id="Layer_1" xmlns="http://www.w3.org/2000/svg" xmlns:xlink="http://www.w3.org/1999/xlink" x="0px" y="0px"
	 viewBox="0 0 72 72" style="enable-background:new 0 0 72 72;" xml:space="preserve">
<style type="text/css">
	.st0{display:none;}
	.st1{display:inline;}
	.st2{fill:none;stroke:#1A1A1A;stroke-width:2;stroke-linecap:round;stroke-linejoin:round;}
	.st3{fill:none;stroke:#1A1A1A;stroke-width:2;stroke-linejoin:round;}
	.st4{clip-path:url(#SVGID_2_);}
	.st5{clip-path:url(#SVGID_4_);}
	.st6{clip-path:url(#SVGID_6_);}
	.st7{display:inline;clip-path:url(#SVGID_8_);enable-background:new    ;}
	.st8{clip-path:url(#SVGID_10_);}
	.st9{enable-background:new    ;}
	.st10{clip-path:url(#SVGID_12_);}
	.st11{clip-path:url(#SVGID_14_);}
	.st12{clip-path:url(#SVGID_17_);}
	.st13{clip-path:url(#SVGID_18_);}
	.st14{clip-path:url(#SVGID_20_);}
	.st15{clip-path:url(#SVGID_18_);enable-background:new    ;}
	.st16{clip-path:url(#SVGID_22_);}
	.st17{clip-path:url(#SVGID_24_);}
	.st18{clip-path:url(#SVGID_26_);}
	.st19{display:inline;fill:none;stroke:#000000;stroke-width:2;stroke-miterlimit:10;}
	.st20{fill:none;}
	.st21{fill:none;stroke:#000000;stroke-width:2;stroke-miterlimit:10;}
	.st22{stroke:#000000;stroke-width:2;stroke-miterlimit:10;}
</style>
<g id="teaching" class="st0">
	<g id="XMLID_2_" class="st1">
		<path id="XMLID_12_" class="st2" d="M23.3,58.2c0,0,3.1-4,7-4s7,4,7,4H23.3z"/>
		<path id="XMLID_11_" class="st2" d="M37.3,58.2c0,0,3.1-4,7-4s7,4,7,4H37.3z"/>
		<path id="XMLID_10_" class="st2" d="M51.3,58.2c0,0,3.1-4,7-4s7,4,7,4H51.3z"/>
		<polyline id="XMLID_9_" class="st3" points="21.3,42.2 57.3,42.2 57.3,14.2 16.3,14.2 		"/>
		<circle id="XMLID_8_" class="st3" cx="16.3" cy="18.2" r="4"/>
		<path id="XMLID_7_" class="st2" d="M11.3,30.2v24h10V29.7c0-0.8,0.7-1.5,1.5-1.5h8.5c2.2,0,4-1.8,4-4h-15l-4,4l-4-4l-2.6,0.7
			c-1.4,0.5-2.4,1.8-2.4,3.3v8c0,2.2,1.8,4,4,4"/>
		<line id="XMLID_6_" class="st2" x1="16.3" y1="40.2" x2="16.3" y2="54.2"/>
		<circle id="XMLID_5_" class="st3" cx="30.3" cy="50.2" r="4"/>
		<circle id="XMLID_4_" class="st3" cx="44.3" cy="50.2" r="4"/>
		<circle id="XMLID_3_" class="st3" cx="58.3" cy="50.2" r="4"/>
	</g>
</g>
<g class="st0">
	<g class="st1">
		<g>
			<g>
				<defs>
					<rect id="SVGID_1_" x="7.4" y="6.4" width="59.5" height="58.9"/>
				</defs>
				<clipPath id="SVGID_2_">
					<use xlink:href="#SVGID_1_"  style="overflow:visible;"/>
				</clipPath>
				<g class="st4">
					<g>
						<defs>
							<rect id="SVGID_3_" x="7.4" y="6.4" width="59.5" height="58.9"/>
						</defs>
						<clipPath id="SVGID_4_">
							<use xlink:href="#SVGID_3_"  style="overflow:visible;"/>
						</clipPath>
						<g class="st5">
							<g>
								<g>
									<defs>
										<rect id="SVGID_5_" x="7.4" y="6.4" width="59.5" height="58.9"/>
									</defs>
									<clipPath id="SVGID_6_">
										<use xlink:href="#SVGID_5_"  style="overflow:visible;"/>
									</clipPath>
									<g class="st6">
										<g id="Layer_2" class="st0">
											<defs>
												<rect id="SVGID_7_" x="7.4" y="6.4" width="59.5" height="58.9"/>
											</defs>
											<clipPath id="SVGID_8_" class="st1">
												<use xlink:href="#SVGID_7_"  style="overflow:visible;"/>
											</clipPath>
											<g id="XMLID_28_" class="st7">
												<g id="XMLID_29_">
													<g>
														<defs>
															<rect id="SVGID_9_" x="7.4" y="6.4" width="59.5" height="58.9"/>
														</defs>
														<clipPath id="SVGID_10_">
															<use xlink:href="#SVGID_9_"  style="overflow:visible;"/>
														</clipPath>
														<g id="XMLID_31_" class="st8">
															<g id="XMLID_33_" class="st9">
																<defs>
																	<rect id="SVGID_11_" x="7.4" y="6.4" class="st9" width="59.5" height="58.9"/>
																</defs>
																<clipPath id="SVGID_12_">
																	<use xlink:href="#SVGID_11_"  style="overflow:visible;"/>
																</clipPath>
																<g id="XMLID_34_" class="st10">
																	<g id="XMLID_36_">
																		<g id="XMLID_38_" class="st9">
																			<defs>
																				<rect id="SVGID_13_" x="7.4" y="6.4" class="st9" width="59.5" height="58.9"/>
																			</defs>
																			<clipPath id="SVGID_14_">
																				<use xlink:href="#SVGID_13_"  style="overflow:visible;"/>
																			</clipPath>
																			<g id="XMLID_39_" class="st11">
																				<g id="XMLID_41_">
																					<defs>
																						<rect id="SVGID_15_" x="7.4" y="6.4" width="59.5" height="58.9"/>
																					</defs>
																					<defs>
																						<rect id="SVGID_16_" x="7.4" y="6.4" width="59.5" height="58.9"/>
																					</defs>
																					<clipPath id="SVGID_17_">
																						<use xlink:href="#SVGID_15_"  style="overflow:visible;"/>
																					</clipPath>
																					<clipPath id="SVGID_18_" class="st12">
																						<use xlink:href="#SVGID_16_"  style="overflow:visible;"/>
																					</clipPath>
																					<g id="XMLID_56_" class="st13">
																						<g id="XMLID_58_">
																							<defs>
																								<rect id="SVGID_19_" x="7.4" y="6.4" width="59.5" height="59.5"/>
																							</defs>
																							<clipPath id="SVGID_20_">
																								<use xlink:href="#SVGID_19_"  style="overflow:visible;"/>
																							</clipPath>
																							<g transform="matrix(1 0 0 1 4.768372e-07 0)" class="st14">
																							</g>
																						</g>
																					</g>
																					<g id="XMLID_43_" class="st15">
																						<g id="XMLID_44_">
																							<defs>
																								<rect id="SVGID_21_" x="7.4" y="6.4" width="59.5" height="58.9"/>
																							</defs>
																							<clipPath id="SVGID_22_">
																								<use xlink:href="#SVGID_21_"  style="overflow:visible;"/>
																							</clipPath>
																							<g id="XMLID_46_" class="st16">
																								<g id="XMLID_48_" class="st9">
																									<g id="XMLID_49_">
																										<defs>
																											<rect id="SVGID_23_" x="7.4" y="6.4" width="59.5" height="58.9"/>
																										</defs>
																										<clipPath id="SVGID_24_">
																											<use xlink:href="#SVGID_23_"  style="overflow:visible;"/>
																										</clipPath>
																										<g id="XMLID_51_" class="st17">
																											<g id="XMLID_53_">
																												<defs>
																													<rect id="SVGID_25_" x="7.4" y="6.4" width="59.5" height="59.5"/>
																												</defs>
																												<clipPath id="SVGID_26_">
																													<use xlink:href="#SVGID_25_"  style="overflow:visible;"/>
																												</clipPath>
																												<g transform="matrix(1 0 0 1 4.768372e-07 0)" class="st18">
																												</g>
																											</g>
																										</g>
																									</g>
																								</g>
																							</g>
																						</g>
																					</g>
																				</g>
																			</g>
																		</g>
																	</g>
																</g>
															</g>
														</g>
													</g>
												</g>
											</g>
										</g>
										<g id="Layer_3" class="st0">
											<path id="XMLID_30_" class="st19" d="M50,59H16c0,0-3-0.8-3-3.8s3.3-3.2,3.3-3.2H49V38"/>
											<line id="XMLID_27_" class="st19" x1="18" y1="11" x2="18" y2="52"/>
											<line id="XMLID_32_" class="st19" x1="48" y1="52" x2="48" y2="59"/>
											<line id="XMLID_35_" class="st19" x1="48" y1="56" x2="19" y2="56"/>
											<path id="XMLID_50_" class="st19" d="M48,54"/>
											<path id="XMLID_40_" class="st19" d="M49,26V10.5c0,0-28.7,0-31.7,0c-2.3,0-4.3,1.1-4.3,3.3c0,2,0,41.1,0,41.1"/>
											<path id="XMLID_55_" class="st19" d="M46.2,35.9c-1.7,5-6.4,8.5-11.9,8.5c-7,0-12.6-5.6-12.6-12.6s5.6-12.6,12.6-12.6
												c5.4,0,10,3.4,11.8,8.1"/>
											<path id="XMLID_54_" class="st19" d="M42.1,33.4c-0.7,3.6-3.9,6.3-7.7,6.3c-4.3,0-7.9-3.5-7.9-7.9s3.5-7.9,7.9-7.9
												c3.8,0,6.9,2.6,7.7,6.2"/>
											<circle id="XMLID_42_" class="st19" cx="34.7" cy="31.7" r="3.2"/>
											<line id="XMLID_45_" class="st19" x1="34" y1="32" x2="50" y2="32"/>
											<polygon id="XMLID_47_" class="st19" points="44.3,32 46.8,29 52,29 49,31.9 52.1,35 47,35 											"/>
											<path id="XMLID_59_" class="st19" d="M58,55c0,0-2-4.1-2-9.4S56,16,56,16s0.2-1.6,2.1-1.6s1.9,1.5,1.9,1.5V46
												C60,46,59.9,49.7,58,55z"/>
											<polyline id="XMLID_60_" class="st19" points="55,19 62,19 62,31 											"/>
											<line id="XMLID_61_" class="st19" x1="55" y1="22" x2="62" y2="22"/>
										</g>
										<g id="Layer_4" class="st0">
											<g id="XMLID_37_" class="st1">
												<path id="XMLID_67_" class="st2" d="M40,50c0,1.1-0.9,2-2,2h-4c-1.1,0-2-0.9-2-2H7v2c0,2.2,1.8,4,4,4h50
													c2.2,0,4-1.8,4-4v-2H40z"/>
												<polygon id="XMLID_66_" class="st3" points="41,24 37,24 44,14 51,24 47,24 47,46 41,46 												"/>
												<rect id="XMLID_65_" x="31" y="32" class="st2" width="6" height="14"/>
												<rect id="XMLID_64_" x="21" y="38" class="st2" width="6" height="8"/>
												<polyline id="XMLID_63_" class="st3" points="38.4,22 15,22 15,50 												"/>
												<polyline id="XMLID_62_" class="st3" points="57,50 57,22 49.6,22 												"/>
												<path id="XMLID_57_" class="st3" d="M41.2,18H13c-1.1,0-2,0.9-2,2v30"/>
												<path id="XMLID_52_" class="st3" d="M61,50V20c0-1.1-0.9-2-2-2H46.8"/>
											</g>
										</g>
										<g id="Layer_5" class="st0">
											<g id="XMLID_68_" class="st1">
												<path id="XMLID_77_" class="st3" d="M51,40c-1.3-1.3-3.7-1.3-5,0l-2,2"/>
												<path id="XMLID_76_" class="st3" d="M56,40c-1.3-1.3-3.7-1.3-5,0l-8,8"/>
												<polyline id="XMLID_75_" class="st2" points="12,44 22,44 22,60 12,60 												"/>
												<circle id="XMLID_74_" class="st2" cx="39" cy="25" r="13"/>
												<circle id="XMLID_73_" class="st2" cx="17" cy="55" r="1"/>
												<path id="XMLID_72_" class="st3" d="M22,58h13l14-4l13-13l-1-1c-1.3-1.3-3.7-1.3-5,0l-8,8H35.5c-0.3,0-0.5-0.2-0.5-0.5
													s0.2-0.5,0.5-0.5H41c2.2,0,4-1.8,4-4v-1H32c-1.9,0-3.8,0.8-5.1,2.1l-2.2,2.2C24.3,46.7,23.6,47,23,47h-1"/>
												<path id="XMLID_71_" class="st2" d="M43,19h-5c-1.7,0-3,1.3-3,3s1.3,3,3,3h2c1.7,0,3,1.3,3,3s-1.3,3-3,3h-5"/>
												<line id="XMLID_70_" class="st2" x1="39" y1="19" x2="39" y2="16"/>
												<line id="XMLID_69_" class="st2" x1="39" y1="34" x2="39" y2="31"/>
											</g>
										</g>
										<g id="Layer_6">
											<g id="XMLID_78_">
												<path id="XMLID_82_" class="st3" d="M54,29h-7l-4.4-6.2c-0.3-0.4-0.8-0.7-1.3-0.8l-7-1c-0.5-0.1-0.9,0-1.3,0.3l-8,5
													c-0.3,0.2-0.6,0.5-0.7,0.8l-4,8c-0.5,1-0.1,2.2,0.9,2.7c0.3,0.1,0.6,0.2,0.9,0.2c0.7,0,1.4-0.4,1.8-1.1l0,0l3.7-7.5
													l5.3-3.3L30.2,35c-0.1,0.3-0.1,0.6-0.1,1v0.1v12.4l-3.7,8.4c-0.7,1.5,0,3.3,1.5,4c0.4,0.2,0.8,0.3,1.2,0.3
													c1.1,0,2.2-0.7,2.7-1.8l4-9c0.2-0.4,0.3-0.8,0.3-1.2v-7.4l6,4v6.4c0,1.7,1.3,3,3,3s3-1.3,3-3v-8c0-1-0.5-1.9-1.3-2.5
													L38.3,36l2.6-8.7l3.6,5c0.4,0.5,1,0.8,1.6,0.8h8c1.1,0,2-0.9,2-2C56,29.9,55.1,29,54,29z"/>
												<circle id="XMLID_81_" class="st2" cx="40" cy="16" r="5"/>
												<polyline id="XMLID_80_" class="st2" points="61,49 52,49 52,55 42,55 42,61 17,61 												"/>
												
													<rect id="XMLID_79_" x="14.2" y="35.5" transform="matrix(0.5 -0.866 0.866 0.5 -26.846 36.4929)" class="st2" width="8" height="12"/>
											</g>
										</g>
									</g>
								</g>
							</g>
						</g>
					</g>
				</g>
			</g>
		</g>
	</g>
</g>
<rect x="7.4" y="6.4" class="st20" width="59.5" height="58.9"/>
<g id="Layer_3_1_">
	<path d="M7.4,36.1c0,0,5.5,7.1,14.4,3.9c0.1,0,4.2-2.3,5.4-3.9C27.1,36,7.4,36.1,7.4,36.1z"/>
	<line class="st21" x1="16.3" y1="23.5" x2="8" y2="36.5"/>
	<line class="st21" x1="18" y1="23.4" x2="26.5" y2="36.5"/>
	<circle class="st22" cx="17.1" cy="22.6" r="1.4"/>
	<rect x="35.5" y="18.4" width="2.5" height="37.5"/>
	<rect x="16.8" y="21.9" width="40.3" height="1.2"/>
	<rect x="31.4" y="55" width="5.4" height="1.2"/>
	<rect x="36.8" y="55" width="5.4" height="1.2"/>
	<path d="M47.2,36.1c0,0,5.5,7.1,14.4,3.9c0.1,0,4.2-2.3,5.4-3.9C66.8,36,47.2,36.1,47.2,36.1z"/>
	<line class="st21" x1="56.1" y1="23.5" x2="47.8" y2="36.5"/>
	<line class="st21" x1="57.8" y1="23.4" x2="66.3" y2="36.5"/>
	<circle class="st22" cx="56.9" cy="22.6" r="1.4"/>
</g>
</svg>
