<?xml version="1.0" encoding="utf-8"?>
<!-- Generator: Adobe Illustrator 19.0.0, SVG Export Plug-In . SVG Version: 6.00 Build 0)  -->
<svg version="1.1" xmlns="http://www.w3.org/2000/svg" xmlns:xlink="http://www.w3.org/1999/xlink" x="0px" y="0px"
	 viewBox="0 0 72 72" style="enable-background:new 0 0 72 72;" xml:space="preserve">
<style type="text/css">
	.st0{display:none;}
	.st1{display:inline;}
	.st2{fill:none;stroke:#1A1A1A;stroke-width:2;stroke-linecap:round;stroke-linejoin:round;}
	.st3{fill:none;stroke:#1A1A1A;stroke-width:2;stroke-linejoin:round;}
	.st4{display:inline;enable-background:new    ;}
	.st5{clip-path:url(#XMLID_99_);}
	.st6{clip-path:url(#XMLID_100_);enable-background:new    ;}
	.st7{clip-path:url(#XMLID_101_);}
	.st8{clip-path:url(#XMLID_102_);enable-background:new    ;}
	.st9{clip-path:url(#XMLID_103_);}
	.st10{clip-path:url(#XMLID_104_);enable-background:new    ;}
	.st11{clip-path:url(#XMLID_105_);}
	.st12{clip-path:url(#XMLID_106_);}
	.st13{clip-path:url(#XMLID_108_);enable-background:new    ;}
	.st14{clip-path:url(#XMLID_109_);}
	.st15{clip-path:url(#XMLID_110_);}
	.st16{display:inline;fill:none;stroke:#000000;stroke-width:2;stroke-miterlimit:10;}
</style>
<g id="teaching" class="st0">
	<g id="XMLID_2_" class="st1">
		<path id="XMLID_12_" class="st2" d="M23.3,58.2c0,0,3.1-4,7-4c3.9,0,7,4,7,4H23.3z"/>
		<path id="XMLID_11_" class="st2" d="M37.3,58.2c0,0,3.1-4,7-4c3.9,0,7,4,7,4H37.3z"/>
		<path id="XMLID_10_" class="st2" d="M51.3,58.2c0,0,3.1-4,7-4c3.9,0,7,4,7,4H51.3z"/>
		<polyline id="XMLID_9_" class="st3" points="21.3,42.2 57.3,42.2 57.3,14.2 16.3,14.2 		"/>
		<circle id="XMLID_8_" class="st3" cx="16.3" cy="18.2" r="4"/>
		<path id="XMLID_7_" class="st2" d="M11.3,30.2v24h10V29.7c0-0.8,0.7-1.5,1.5-1.5h8.5c2.2,0,4-1.8,4-4h-15l-4,4l-4-4l-2.6,0.7
			c-1.4,0.5-2.4,1.8-2.4,3.3v8c0,2.2,1.8,4,4,4"/>
		<line id="XMLID_6_" class="st2" x1="16.3" y1="40.2" x2="16.3" y2="54.2"/>
		<circle id="XMLID_5_" class="st3" cx="30.3" cy="50.2" r="4"/>
		<circle id="XMLID_4_" class="st3" cx="44.3" cy="50.2" r="4"/>
		<circle id="XMLID_3_" class="st3" cx="58.3" cy="50.2" r="4"/>
	</g>
</g>
<g id="Layer_2" class="st0">
	<g id="XMLID_28_" class="st4">
		<g id="XMLID_29_">
			<defs>
				<rect id="XMLID_1_" x="7.4" y="6.4" width="59.5" height="58.9"/>
			</defs>
			<clipPath id="XMLID_99_">
				<use xlink:href="#XMLID_1_"  style="overflow:visible;"/>
			</clipPath>
			<g id="XMLID_31_" class="st5">
				<defs>
					<rect id="XMLID_13_" x="7.4" y="6.4" width="59.5" height="58.9"/>
				</defs>
				<clipPath id="XMLID_100_">
					<use xlink:href="#XMLID_13_"  style="overflow:visible;"/>
				</clipPath>
				<g id="XMLID_33_" class="st6">
					<g id="XMLID_34_">
						<defs>
							<rect id="XMLID_14_" x="7.4" y="6.4" width="59.5" height="58.9"/>
						</defs>
						<clipPath id="XMLID_101_">
							<use xlink:href="#XMLID_14_"  style="overflow:visible;"/>
						</clipPath>
						<g id="XMLID_36_" class="st7">
							<defs>
								<rect id="XMLID_15_" x="7.4" y="6.4" width="59.5" height="58.9"/>
							</defs>
							<clipPath id="XMLID_102_">
								<use xlink:href="#XMLID_15_"  style="overflow:visible;"/>
							</clipPath>
							<g id="XMLID_38_" class="st8">
								<g id="XMLID_39_">
									<defs>
										<rect id="XMLID_16_" x="7.4" y="6.4" width="59.5" height="58.9"/>
									</defs>
									<clipPath id="XMLID_103_">
										<use xlink:href="#XMLID_16_"  style="overflow:visible;"/>
									</clipPath>
									<g id="XMLID_41_" class="st9">
										<defs>
											<rect id="XMLID_17_" x="7.4" y="6.4" width="59.5" height="58.9"/>
										</defs>
										<clipPath id="XMLID_104_">
											<use xlink:href="#XMLID_17_"  style="overflow:visible;"/>
										</clipPath>
										<g id="XMLID_43_" class="st10">
											<g id="XMLID_44_">
												<defs>
													<rect id="XMLID_18_" x="7.4" y="6.4" width="59.5" height="58.9"/>
												</defs>
												<clipPath id="XMLID_105_">
													<use xlink:href="#XMLID_18_"  style="overflow:visible;"/>
												</clipPath>
												<g id="XMLID_56_" class="st11">
													<defs>
														<rect id="XMLID_24_" x="7.4" y="6.4" width="59.5" height="58.9"/>
													</defs>
													<clipPath id="XMLID_106_">
														<use xlink:href="#XMLID_24_"  style="overflow:visible;"/>
													</clipPath>
													<g id="XMLID_58_" class="st12">
														<defs>
															<rect id="XMLID_25_" x="7.4" y="6.4" width="59.5" height="59.5"/>
														</defs>
														<clipPath id="XMLID_107_">
															<use xlink:href="#XMLID_25_"  style="overflow:visible;"/>
														</clipPath>
														<g transform="matrix(1 0 0 1 4.768372e-07 0)" style="clip-path:url(#XMLID_107_);">
															
																<image style="overflow:visible;" width="171" height="171" id="XMLID_26_" xlink:href="8F700ABFDF8FAD72.png"  transform="matrix(0.3478 0 0 0.3478 7.4294 6.4479)">
															</image>
														</g>
													</g>
												</g>
												<g id="XMLID_46_" class="st11">
													<defs>
														<rect id="XMLID_19_" x="7.4" y="6.4" width="59.5" height="58.9"/>
													</defs>
													<clipPath id="XMLID_108_">
														<use xlink:href="#XMLID_19_"  style="overflow:visible;"/>
													</clipPath>
													<g id="XMLID_48_" class="st13">
														<g id="XMLID_49_">
															<defs>
																<rect id="XMLID_20_" x="7.4" y="6.4" width="59.5" height="58.9"/>
															</defs>
															<clipPath id="XMLID_109_">
																<use xlink:href="#XMLID_20_"  style="overflow:visible;"/>
															</clipPath>
															<g id="XMLID_51_" class="st14">
																<defs>
																	<rect id="XMLID_21_" x="7.4" y="6.4" width="59.5" height="58.9"/>
																</defs>
																<clipPath id="XMLID_110_">
																	<use xlink:href="#XMLID_21_"  style="overflow:visible;"/>
																</clipPath>
																<g id="XMLID_53_" class="st15">
																	<defs>
																		<rect id="XMLID_22_" x="7.4" y="6.4" width="59.5" height="59.5"/>
																	</defs>
																	<clipPath id="XMLID_111_">
																		<use xlink:href="#XMLID_22_"  style="overflow:visible;"/>
																	</clipPath>
																	<g transform="matrix(1 0 0 1 4.768372e-07 0)" style="clip-path:url(#XMLID_111_);">
																		
																			<image style="overflow:visible;" width="171" height="171" id="XMLID_23_" xlink:href="8F700ABFDF8FAD76.png"  transform="matrix(0.3478 0 0 0.3478 7.4294 6.4479)">
																		</image>
																	</g>
																</g>
															</g>
														</g>
													</g>
												</g>
											</g>
										</g>
									</g>
								</g>
							</g>
						</g>
					</g>
				</g>
			</g>
		</g>
	</g>
</g>
<g id="Layer_3" class="st0">
	<path id="XMLID_30_" class="st16" d="M50,59H16c0,0-3-0.8-3-3.8s3.3-3.2,3.3-3.2H49V38"/>
	<line id="XMLID_27_" class="st16" x1="18" y1="11" x2="18" y2="52"/>
	<line id="XMLID_32_" class="st16" x1="48" y1="52" x2="48" y2="59"/>
	<line id="XMLID_35_" class="st16" x1="48" y1="56" x2="19" y2="56"/>
	<path id="XMLID_50_" class="st16" d="M48,54"/>
	<path id="XMLID_40_" class="st16" d="M49,26V10.5c0,0-28.7,0-31.7,0c-2.3,0-4.3,1.1-4.3,3.3c0,2,0,41.1,0,41.1"/>
	<path id="XMLID_55_" class="st16" d="M46.2,35.9c-1.7,5-6.4,8.5-11.9,8.5c-7,0-12.6-5.6-12.6-12.6s5.6-12.6,12.6-12.6
		c5.4,0,10,3.4,11.8,8.1"/>
	<path id="XMLID_54_" class="st16" d="M42.1,33.4c-0.7,3.6-3.9,6.3-7.7,6.3c-4.3,0-7.9-3.5-7.9-7.9s3.5-7.9,7.9-7.9
		c3.8,0,6.9,2.6,7.7,6.2"/>
	<circle id="XMLID_42_" class="st16" cx="34.7" cy="31.7" r="3.2"/>
	<line id="XMLID_45_" class="st16" x1="34" y1="32" x2="50" y2="32"/>
	<polygon id="XMLID_47_" class="st16" points="44.3,32 46.8,29 52,29 49,31.9 52.1,35 47,35 	"/>
	<path id="XMLID_59_" class="st16" d="M58,55c0,0-2-4.1-2-9.4S56,16,56,16s0.2-1.6,2.1-1.6s1.9,1.5,1.9,1.5V46
		C60,46,59.9,49.7,58,55z"/>
	<polyline id="XMLID_60_" class="st16" points="55,19 62,19 62,31 	"/>
	<line id="XMLID_61_" class="st16" x1="55" y1="22" x2="62" y2="22"/>
</g>
<g id="Layer_4" class="st0">
	<g id="XMLID_37_" class="st1">
		<path id="XMLID_67_" class="st2" d="M40,50c0,1.1-0.9,2-2,2h-4c-1.1,0-2-0.9-2-2H7v2c0,2.2,1.8,4,4,4h50c2.2,0,4-1.8,4-4v-2H40z"
			/>
		<polygon id="XMLID_66_" class="st3" points="41,24 37,24 44,14 51,24 47,24 47,46 41,46 		"/>
		<rect id="XMLID_65_" x="31" y="32" class="st2" width="6" height="14"/>
		<rect id="XMLID_64_" x="21" y="38" class="st2" width="6" height="8"/>
		<polyline id="XMLID_63_" class="st3" points="38.4,22 15,22 15,50 		"/>
		<polyline id="XMLID_62_" class="st3" points="57,50 57,22 49.6,22 		"/>
		<path id="XMLID_57_" class="st3" d="M41.2,18H13c-1.1,0-2,0.9-2,2v30"/>
		<path id="XMLID_52_" class="st3" d="M61,50V20c0-1.1-0.9-2-2-2H46.8"/>
	</g>
</g>
<g id="Layer_5" class="st0">
	<g id="XMLID_68_" class="st1">
		<path id="XMLID_77_" class="st3" d="M51,40c-1.3-1.3-3.7-1.3-5,0l-2,2"/>
		<path id="XMLID_76_" class="st3" d="M56,40c-1.3-1.3-3.7-1.3-5,0l-8,8"/>
		<polyline id="XMLID_75_" class="st2" points="12,44 22,44 22,60 12,60 		"/>
		<circle id="XMLID_74_" class="st2" cx="39" cy="25" r="13"/>
		<circle id="XMLID_73_" class="st2" cx="17" cy="55" r="1"/>
		<path id="XMLID_72_" class="st3" d="M22,58h13l14-4l13-13l-1-1c-1.3-1.3-3.7-1.3-5,0l-8,8H35.5c-0.3,0-0.5-0.2-0.5-0.5
			c0-0.3,0.2-0.5,0.5-0.5H41c2.2,0,4-1.8,4-4v-1H32c-1.9,0-3.8,0.8-5.1,2.1l-2.2,2.2C24.3,46.7,23.6,47,23,47h-1"/>
		<path id="XMLID_71_" class="st2" d="M43,19h-5c-1.7,0-3,1.3-3,3c0,1.7,1.3,3,3,3h2c1.7,0,3,1.3,3,3c0,1.7-1.3,3-3,3h-5"/>
		<line id="XMLID_70_" class="st2" x1="39" y1="19" x2="39" y2="16"/>
		<line id="XMLID_69_" class="st2" x1="39" y1="34" x2="39" y2="31"/>
	</g>
</g>
<g id="Layer_6" class="st0">
	<g id="XMLID_78_" class="st1">
		<path id="XMLID_82_" class="st3" d="M54,29h-7l-4.4-6.2c-0.3-0.4-0.8-0.7-1.3-0.8l-7-1c-0.5-0.1-0.9,0-1.3,0.3l-8,5
			c-0.3,0.2-0.6,0.5-0.7,0.8l-4,8c-0.5,1-0.1,2.2,0.9,2.7c0.3,0.1,0.6,0.2,0.9,0.2c0.7,0,1.4-0.4,1.8-1.1h0l3.7-7.5l5.3-3.3
			l-2.7,8.9c-0.1,0.3-0.1,0.6-0.1,1c0,0,0,0.1,0,0.1v12.4l-3.7,8.4c-0.7,1.5,0,3.3,1.5,4c0.4,0.2,0.8,0.3,1.2,0.3
			c1.1,0,2.2-0.7,2.7-1.8l4-9c0.2-0.4,0.3-0.8,0.3-1.2v-7.4l6,4l0,6.4c0,1.7,1.3,3,3,3c1.7,0,3-1.3,3-3v-8c0-1-0.5-1.9-1.3-2.5
			l-8.5-5.7l2.6-8.7l3.6,5c0.4,0.5,1,0.8,1.6,0.8h8c1.1,0,2-0.9,2-2C56,29.9,55.1,29,54,29z"/>
		<circle id="XMLID_81_" class="st2" cx="40" cy="16" r="5"/>
		<polyline id="XMLID_80_" class="st2" points="61,49 52,49 52,55 42,55 42,61 17,61 		"/>
		
			<rect id="XMLID_79_" x="12.2" y="37.5" transform="matrix(0.866 0.5 -0.5 0.866 23.1701 -3.5429)" class="st2" width="12" height="8"/>
	</g>
</g>
<g id="Layer_7">
	<g id="XMLID_83_">
		<path id="XMLID_97_" class="st3" d="M16,53V17c0-2.2,1.8-4,4-4h32"/>
		<line id="XMLID_96_" class="st2" x1="30" y1="23" x2="40" y2="23"/>
		<line id="XMLID_95_" class="st2" x1="30" y1="27" x2="36" y2="27"/>
		<line id="XMLID_94_" class="st2" x1="30" y1="33" x2="40" y2="33"/>
		<line id="XMLID_93_" class="st2" x1="30" y1="37" x2="36" y2="37"/>
		<line id="XMLID_92_" class="st2" x1="30" y1="43" x2="40" y2="43"/>
		<line id="XMLID_91_" class="st2" x1="30" y1="47" x2="36" y2="47"/>
		<polyline id="XMLID_90_" class="st2" points="26,23 22,27 20,25 		"/>
		<polyline id="XMLID_89_" class="st2" points="26,33 22,37 20,35 		"/>
		<polyline id="XMLID_88_" class="st2" points="26,43 22,47 20,45 		"/>
		<path id="XMLID_87_" class="st2" d="M52,53V25c0-1.1,0.9-2,2-2h1c1.1,0,2,0.9,2,2v28l-2.5,6L52,53z"/>
		<line id="XMLID_86_" class="st2" x1="52" y1="37" x2="57" y2="37"/>
		<path id="XMLID_85_" class="st2" d="M57,25L57,25c1.7,0,3,1.3,3,3v7"/>
		<path id="XMLID_84_" class="st3" d="M44,59H14c-2.2,0-4-1.8-4-4v-2h30v2C40,57.2,41.8,59,44,59s4-1.8,4-4V17c0-2.2,1.8-4,4-4
			s4,1.8,4,4v2h-8"/>
	</g>
</g>
</svg>
