<?xml version="1.0" encoding="UTF-8" standalone="no"?>
<svg width="98px" height="17px" viewBox="0 0 98 17" version="1.1" xmlns="http://www.w3.org/2000/svg" xmlns:xlink="http://www.w3.org/1999/xlink">
    <!-- Generator: Sketch 3.8.3 (29802) - http://www.bohemiancoding.com/sketch -->
    <title>Artboard 5</title>
    <desc>Created with Sketch.</desc>
    <defs/>
    <g id="Page-1" stroke="none" stroke-width="1" fill="none" fill-rule="evenodd">
        <g id="Artboard-5">
            <path d="M5.3705,7.7985 C5.57450102,7.7985 5.7567492,7.76475034 5.91725,7.69725 C6.0777508,7.62974966 6.21349944,7.53300063 6.3245,7.407 C6.43550055,7.28099937 6.52024971,7.12725091 6.57875,6.94575 C6.63725029,6.76424909 6.6665,6.55800116 6.6665,6.327 L6.6665,2.4435 L8.1875,2.4435 L8.1875,6.327 C8.1875,6.72900201 8.12225065,7.09799832 7.99175,7.434 C7.86124935,7.77000168 7.67450121,8.05949879 7.4315,8.3025 C7.18849878,8.54550122 6.89300174,8.73449933 6.545,8.8695 C6.19699826,9.00450068 5.80550217,9.072 5.3705,9.072 C4.93249781,9.072 4.53950174,9.00450068 4.1915,8.8695 C3.84349826,8.73449933 3.54800121,8.54550122 3.305,8.3025 C3.06199878,8.05949879 2.87600064,7.77000168 2.747,7.434 C2.61799935,7.09799832 2.5535,6.72900201 2.5535,6.327 L2.5535,2.4435 L4.0745,2.4435 L4.0745,6.3225 C4.0745,6.55350116 4.10374971,6.75974909 4.16225,6.94125 C4.22075029,7.12275091 4.30549944,7.27724936 4.4165,7.40475 C4.52750055,7.53225064 4.6632492,7.62974966 4.82375,7.69725 C4.9842508,7.76475034 5.16649898,7.7985 5.3705,7.7985 L5.3705,7.7985 Z M12.5085,5.526 C12.715501,5.526 12.8917493,5.49975026 13.03725,5.44725 C13.1827507,5.39474974 13.3019995,5.32200047 13.395,5.229 C13.4880005,5.13599954 13.5554998,5.02725062 13.5975,4.90275 C13.6395002,4.77824938 13.6605,4.64400072 13.6605,4.5 C13.6605,4.21199856 13.5667509,3.98700081 13.37925,3.825 C13.1917491,3.66299919 12.901502,3.582 12.5085,3.582 L11.8965,3.582 L11.8965,5.526 L12.5085,5.526 Z M15.7395,9 L14.3625,9 C14.1074987,9 13.9245006,8.90400096 13.8135,8.712 L12.7245,6.8085 C12.6734997,6.7274996 12.6165003,6.66825019 12.5535,6.63075 C12.4904997,6.59324981 12.4005006,6.5745 12.2835,6.5745 L11.8965,6.5745 L11.8965,9 L10.3755,9 L10.3755,2.4435 L12.5085,2.4435 C12.9825024,2.4435 13.3867483,2.49224951 13.72125,2.58975 C14.0557517,2.68725049 14.3287489,2.82299913 14.54025,2.997 C14.7517511,3.17100087 14.9054995,3.37649882 15.0015,3.6135 C15.0975005,3.85050119 15.1455,4.10849861 15.1455,4.3875 C15.1455,4.60050107 15.1170003,4.80149906 15.06,4.9905 C15.0029997,5.17950095 14.9190006,5.3542492 14.808,5.51475 C14.6969994,5.6752508 14.5597508,5.81849937 14.39625,5.9445 C14.2327492,6.07050063 14.0445011,6.1739996 13.8315,6.255 C13.9305005,6.30600026 14.0234996,6.36974962 14.1105,6.44625 C14.1975004,6.52275038 14.2754997,6.61349948 14.3445,6.7185 L15.7395,9 Z M19.885,7.8525 C20.086001,7.8525 20.2502494,7.82700026 20.37775,7.776 C20.5052506,7.72499975 20.6049996,7.65900041 20.677,7.578 C20.7490004,7.4969996 20.7984999,7.40550051 20.8255,7.3035 C20.8525001,7.20149949 20.866,7.09800053 20.866,6.993 C20.866,6.8729994 20.8502502,6.76500048 20.81875,6.669 C20.7872498,6.57299952 20.7332504,6.49200033 20.65675,6.426 C20.5802496,6.35999967 20.4790006,6.30900018 20.353,6.273 C20.2269994,6.23699982 20.068001,6.219 19.876,6.219 L18.814,6.219 L18.814,7.8525 L19.885,7.8525 Z M18.814,3.582 L18.814,5.202 L19.606,5.202 C19.7740008,5.202 19.9254993,5.19000012 20.0605,5.166 C20.1955007,5.14199988 20.3102495,5.1000003 20.40475,5.04 C20.4992505,4.9799997 20.5712498,4.89750053 20.62075,4.7925 C20.6702502,4.68749948 20.695,4.5555008 20.695,4.3965 C20.695,4.24049922 20.6755002,4.11075052 20.6365,4.00725 C20.5974998,3.90374948 20.5375004,3.82050032 20.4565,3.7575 C20.3754996,3.69449969 20.2727506,3.64950014 20.14825,3.6225 C20.0237494,3.59549987 19.8760009,3.582 19.705,3.582 L18.814,3.582 Z M19.705,2.4435 C20.1580023,2.4435 20.5434984,2.48549958 20.8615,2.5695 C21.1795016,2.65350042 21.438999,2.77199924 21.64,2.925 C21.841001,3.07800077 21.9872495,3.26399891 22.07875,3.483 C22.1702505,3.7020011 22.216,3.94649865 22.216,4.2165 C22.216,4.36350074 22.1950002,4.50524932 22.153,4.64175 C22.1109998,4.77825068 22.0450004,4.90574941 21.955,5.02425 C21.8649995,5.14275059 21.7495007,5.25149951 21.6085,5.3505 C21.4674993,5.4495005 21.298001,5.53499964 21.1,5.607 C21.5320022,5.71200053 21.851499,5.88149883 22.0585,6.1155 C22.265501,6.34950117 22.369,6.65249814 22.369,7.0245 C22.369,7.3035014 22.3150005,7.5629988 22.207,7.803 C22.0989995,8.0430012 21.940751,8.25224911 21.73225,8.43075 C21.523749,8.60925089 21.2665015,8.7487495 20.9605,8.84925 C20.6544985,8.9497505 20.305002,9 19.912,9 L17.293,9 L17.293,2.4435 L19.705,2.4435 Z M27.671,6.4935 L27.0635,4.698 C27.0184998,4.58399943 26.9705003,4.44975077 26.9195,4.29525 C26.8684997,4.14074923 26.8175003,3.9735009 26.7665,3.7935 C26.7214998,3.97650091 26.6735003,4.14599922 26.6225,4.302 C26.5714997,4.45800078 26.5235002,4.59299943 26.4785,4.707 L25.8755,6.4935 L27.671,6.4935 Z M30.0875,9 L28.9085,9 C28.7764993,9 28.6700004,8.96925031 28.589,8.90775 C28.5079996,8.84624969 28.4465002,8.76750048 28.4045,8.6715 L28.0175,7.5285 L25.5245,7.5285 L25.1375,8.6715 C25.1044998,8.75550042 25.0452504,8.83124966 24.95975,8.89875 C24.8742496,8.96625034 24.7685006,9 24.6425,9 L23.4545,9 L25.9925,2.4435 L27.5495,2.4435 L30.0875,9 Z M37.329,2.4435 L37.329,9 L36.537,9 C36.4199994,9 36.3217504,8.98125019 36.24225,8.94375 C36.1627496,8.90624981 36.0840004,8.84100047 36.006,8.748 L32.9145,4.8375 C32.9265001,4.95450059 32.93475,5.06774945 32.93925,5.17725 C32.94375,5.28675055 32.946,5.38949952 32.946,5.4855 L32.946,9 L31.605,9 L31.605,2.4435 L32.406,2.4435 C32.4720003,2.4435 32.5274998,2.44649997 32.5725,2.4525 C32.6175002,2.45850003 32.6579998,2.46974992 32.694,2.48625 C32.7300002,2.50275008 32.7644998,2.52599985 32.7975,2.556 C32.8305002,2.58600015 32.8679998,2.62649975 32.91,2.6775 L36.0285,6.615 C36.0134999,6.48899937 36.003,6.36675059 35.997,6.24825 C35.991,6.12974941 35.988,6.01800053 35.988,5.913 L35.988,2.4435 L37.329,2.4435 Z" id="URBAN-INSTITUTE" fill="#1696d2"/>
            <polygon id="Path" fill="#000000" points="44.207 9 42.677 9 42.677 2.4435 44.207 2.4435"/>
            <path d="M52.2,2.4435 L52.2,9 L51.408,9 C51.2909994,9 51.1927504,8.98125019 51.11325,8.94375 C51.0337496,8.90624981 50.9550004,8.84100047 50.877,8.748 L47.7855,4.8375 C47.7975001,4.95450059 47.80575,5.06774945 47.81025,5.17725 C47.81475,5.28675055 47.817,5.38949952 47.817,5.4855 L47.817,9 L46.476,9 L46.476,2.4435 L47.277,2.4435 C47.3430003,2.4435 47.3984998,2.44649997 47.4435,2.4525 C47.4885002,2.45850003 47.5289998,2.46974992 47.565,2.48625 C47.6010002,2.50275008 47.6354998,2.52599985 47.6685,2.556 C47.7015002,2.58600015 47.7389998,2.62649975 47.781,2.6775 L50.8995,6.615 C50.8844999,6.48899937 50.874,6.36675059 50.868,6.24825 C50.862,6.12974941 50.859,6.01800053 50.859,5.913 L50.859,2.4435 L52.2,2.4435 Z" id="Path" fill="#000000"/>
            <path d="M58.0915,3.7755 C58.0464998,3.84750036 57.9992502,3.90149982 57.94975,3.9375 C57.9002498,3.97350018 57.8365004,3.9915 57.7585,3.9915 C57.6894997,3.9915 57.6152504,3.96975022 57.53575,3.92625 C57.4562496,3.88274978 57.3662505,3.83400027 57.26575,3.78 C57.1652495,3.72599973 57.0505006,3.67725022 56.9215,3.63375 C56.7924994,3.59024978 56.6455008,3.5685 56.4805,3.5685 C56.1954986,3.5685 55.9832507,3.62924939 55.84375,3.75075 C55.7042493,3.87225061 55.6345,4.03649897 55.6345,4.2435 C55.6345,4.37550066 55.6764996,4.48499957 55.7605,4.572 C55.8445004,4.65900044 55.9547493,4.73399969 56.09125,4.797 C56.2277507,4.86000032 56.3837491,4.91774974 56.55925,4.97025 C56.7347509,5.02275026 56.9139991,5.08124968 57.097,5.14575 C57.2800009,5.21025032 57.4592491,5.28599957 57.63475,5.373 C57.8102509,5.46000044 57.9662493,5.57099933 58.10275,5.706 C58.2392507,5.84100068 58.3494996,6.00524903 58.4335,6.19875 C58.5175004,6.39225097 58.5595,6.62549864 58.5595,6.8985 C58.5595,7.20150152 58.5070005,7.48499868 58.402,7.749 C58.2969995,8.01300132 58.144751,8.24324902 57.94525,8.43975 C57.745749,8.63625098 57.4997515,8.79074944 57.20725,8.90325 C56.9147485,9.01575056 56.5825019,9.072 56.2105,9.072 C56.006499,9.072 55.7987511,9.05100021 55.58725,9.009 C55.3757489,8.96699979 55.171001,8.90775038 54.973,8.83125 C54.774999,8.75474962 54.5890009,8.66400053 54.415,8.559 C54.2409991,8.45399948 54.0895006,8.33700065 53.9605,8.208 L54.4105,7.497 C54.4465002,7.44599975 54.4937497,7.40325017 54.55225,7.36875 C54.6107503,7.33424983 54.6744997,7.317 54.7435,7.317 C54.8335005,7.317 54.9242495,7.34549972 55.01575,7.4025 C55.1072505,7.45950029 55.2107494,7.52249966 55.32625,7.5915 C55.4417506,7.66050035 55.5744993,7.72349972 55.7245,7.7805 C55.8745008,7.83750029 56.051499,7.866 56.2555,7.866 C56.5315014,7.866 56.7459992,7.80525061 56.899,7.68375 C57.0520008,7.56224939 57.1285,7.36950132 57.1285,7.1055 C57.1285,6.95249924 57.0865004,6.82800048 57.0025,6.732 C56.9184996,6.63599952 56.8082507,6.55650032 56.67175,6.4935 C56.5352493,6.43049969 56.3800009,6.37500024 56.206,6.327 C56.0319991,6.27899976 55.8535009,6.22575029 55.6705,6.16725 C55.4874991,6.10874971 55.3090009,6.03675043 55.135,5.95125 C54.9609991,5.86574957 54.8057507,5.7532507 54.66925,5.61375 C54.5327493,5.4742493 54.4225004,5.30025104 54.3385,5.09175 C54.2544996,4.88324896 54.2125,4.62600153 54.2125,4.32 C54.2125,4.07399877 54.2619995,3.83400117 54.361,3.6 C54.4600005,3.36599883 54.605499,3.15750092 54.7975,2.9745 C54.989501,2.79149909 55.2249986,2.64525055 55.504,2.53575 C55.7830014,2.42624945 56.1024982,2.3715 56.4625,2.3715 C56.663501,2.3715 56.859249,2.38724984 57.04975,2.41875 C57.240251,2.45025016 57.4209991,2.49674969 57.592,2.55825 C57.7630009,2.61975031 57.9227493,2.69324957 58.07125,2.77875 C58.2197507,2.86425043 58.3524994,2.96099946 58.4695,3.069 L58.0915,3.7755 Z" id="Path" fill="#000000"/>
            <polygon id="Path" fill="#000000" points="65.1665 3.6495 63.3215 3.6495 63.3215 9 61.8005 9 61.8005 3.6495 59.9555 3.6495 59.9555 2.4435 65.1665 2.4435"/>
            <polygon id="Path" fill="#000000" points="68.466 9 66.936 9 66.936 2.4435 68.466 2.4435"/>
            <polygon id="Path" fill="#000000" points="75.4465 3.6495 73.6015 3.6495 73.6015 9 72.0805 9 72.0805 3.6495 70.2355 3.6495 70.2355 2.4435 75.4465 2.4435"/>
            <path d="M79.952,7.7985 C80.156001,7.7985 80.3382492,7.76475034 80.49875,7.69725 C80.6592508,7.62974966 80.7949994,7.53300063 80.906,7.407 C81.0170006,7.28099937 81.1017497,7.12725091 81.16025,6.94575 C81.2187503,6.76424909 81.248,6.55800116 81.248,6.327 L81.248,2.4435 L82.769,2.4435 L82.769,6.327 C82.769,6.72900201 82.7037507,7.09799832 82.57325,7.434 C82.4427493,7.77000168 82.2560012,8.05949879 82.013,8.3025 C81.7699988,8.54550122 81.4745017,8.73449933 81.1265,8.8695 C80.7784983,9.00450068 80.3870022,9.072 79.952,9.072 C79.5139978,9.072 79.1210017,9.00450068 78.773,8.8695 C78.4249983,8.73449933 78.1295012,8.54550122 77.8865,8.3025 C77.6434988,8.05949879 77.4575006,7.77000168 77.3285,7.434 C77.1994994,7.09799832 77.135,6.72900201 77.135,6.327 L77.135,2.4435 L78.656,2.4435 L78.656,6.3225 C78.656,6.55350116 78.6852497,6.75974909 78.74375,6.94125 C78.8022503,7.12275091 78.8869994,7.27724936 78.998,7.40475 C79.1090006,7.53225064 79.2447492,7.62974966 79.40525,7.69725 C79.5657508,7.76475034 79.747999,7.7985 79.952,7.7985 L79.952,7.7985 Z" id="Path" fill="#000000"/>
            <polygon id="Path" fill="#000000" points="89.6685 3.6495 87.8235 3.6495 87.8235 9 86.3025 9 86.3025 3.6495 84.4575 3.6495 84.4575 2.4435 89.6685 2.4435"/>
            <polygon id="Path" fill="#000000" points="92.968 3.6135 92.968 5.1435 95.029 5.1435 95.029 6.2685 92.968 6.2685 92.968 7.83 95.659 7.83 95.659 9 91.438 9 91.438 2.4435 95.659 2.4435 95.659 3.6135"/>
        </g>
    </g>
<style xmlns="http://www.w3.org/1999/xhtml" charset="utf-8" type="text/css" class="firebugResetStyles">/* See license.txt for terms of usage */
/** reset styling **/
.firebugResetStyles {
    z-index: 2147483646 !important;
    top: 0 !important;
    left: 0 !important;
    display: block !important;
    border: 0 none !important;
    margin: 0 !important;
    padding: 0 !important;
    outline: 0 !important;
    min-width: 0 !important;
    max-width: none !important;
    min-height: 0 !important;
    max-height: none !important;
    position: fixed !important;
    transform: rotate(0deg) !important;
    transform-origin: 50% 50% !important;
    border-radius: 0 !important;
    box-shadow: none !important;
    background: transparent none !important;
    pointer-events: none !important;
    white-space: normal !important;
}
style.firebugResetStyles {
    display: none !important;
}

.firebugBlockBackgroundColor {
    background-color: transparent !important;
}

.firebugResetStyles:before, .firebugResetStyles:after {
    content: "" !important;
}
/**actual styling to be modified by firebug theme**/
.firebugCanvas {
    display: none !important;
}

/* * * * * * * * * * * * * * * * * * * * * * * * * * * * * * * * * * * * * * * * * * * * * * * * */
.firebugLayoutBox {
    width: auto !important;
    position: static !important;
}

.firebugLayoutBoxOffset {
    opacity: 0.8 !important;
    position: fixed !important;
}

.firebugLayoutLine {
    opacity: 0.4 !important;
    background-color: #000000 !important;
}

.firebugLayoutLineLeft, .firebugLayoutLineRight {
    width: 1px !important;
    height: 100% !important;
}

.firebugLayoutLineTop, .firebugLayoutLineBottom {
    width: 100% !important;
    height: 1px !important;
}

.firebugLayoutLineTop {
    margin-top: -1px !important;
    border-top: 1px solid #999999 !important;
}

.firebugLayoutLineRight {
    border-right: 1px solid #999999 !important;
}

.firebugLayoutLineBottom {
    border-bottom: 1px solid #999999 !important;
}

.firebugLayoutLineLeft {
    margin-left: -1px !important;
    border-left: 1px solid #999999 !important;
}

/* * * * * * * * * * * * * * * * * * * * * * * * * * * * * * * * * * * * * * * * * * * * * * * * */
.firebugLayoutBoxParent {
    border-top: 0 none !important;
    border-right: 1px dashed #E00 !important;
    border-bottom: 1px dashed #E00 !important;
    border-left: 0 none !important;
    position: fixed !important;
    width: auto !important;
}

.firebugRuler{
    position: absolute !important;
}

.firebugRulerH {
    top: -15px !important;
    left: 0 !important;
    width: 100% !important;
    height: 14px !important;
    background: url("data:image/png,%89PNG%0D%0A%1A%0A%00%00%00%0DIHDR%00%00%13%88%00%00%00%0E%08%02%00%00%00L%25a%0A%00%00%00%04gAMA%00%00%D6%D8%D4OX2%00%00%00%19tEXtSoftware%00Adobe%20ImageReadyq%C9e%3C%00%00%04%F8IDATx%DA%EC%DD%D1n%E2%3A%00E%D1%80%F8%FF%EF%E2%AF2%95%D0D4%0E%C1%14%B0%8Fa-%E9%3E%CC%9C%87n%B9%81%A6W0%1C%A6i%9A%E7y%0As8%1CT%A9R%A5J%95*U%AAT%A9R%A5J%95*U%AAT%A9R%A5J%95*U%AAT%A9R%A5J%95*U%AAT%A9R%A5J%95*U%AAT%A9R%A5J%95*U%AAT%A9R%A5J%95*U%AATE9%FE%FCw%3E%9F%AF%2B%2F%BA%97%FDT%1D~K(%5C%9D%D5%EA%1B%5C%86%B5%A9%BDU%B5y%80%ED%AB*%03%FAV9%AB%E1%CEj%E7%82%EF%FB%18%BC%AEJ8%AB%FA'%D2%BEU9%D7U%ECc0%E1%A2r%5DynwVi%CFW%7F%BB%17%7Dy%EACU%CD%0E%F0%FA%3BX%FEbV%FEM%9B%2B%AD%BE%AA%E5%95v%AB%AA%E3E5%DCu%15rV9%07%B5%7F%B5w%FCm%BA%BE%AA%FBY%3D%14%F0%EE%C7%60%0EU%AAT%A9R%A5J%95*U%AAT%A9R%A5J%95*U%AAT%A9R%A5J%95*U%AAT%A9R%A5J%95*U%AAT%A9R%A5JU%88%D3%F5%1F%AE%DF%3B%1B%F2%3E%DAUCNa%F92%D02%AC%7Dm%F9%3A%D4%F2%8B6%AE*%BF%5C%C2Ym~9g5%D0Y%95%17%7C%C8c%B0%7C%18%26%9CU%CD%13i%F7%AA%90%B3Z%7D%95%B4%C7%60%E6E%B5%BC%05%B4%FBY%95U%9E%DB%FD%1C%FC%E0%9F%83%7F%BE%17%7DkjMU%E3%03%AC%7CWj%DF%83%9An%BCG%AE%F1%95%96yQ%0Dq%5Dy%00%3Et%B5'%FC6%5DS%95pV%95%01%81%FF'%07%00%00%00%00%00%00%00%00%00%F8x%C7%F0%BE%9COp%5D%C9%7C%AD%E7%E6%EBV%FB%1E%E0(%07%E5%AC%C6%3A%ABi%9C%8F%C6%0E9%AB%C0'%D2%8E%9F%F99%D0E%B5%99%14%F5%0D%CD%7F%24%C6%DEH%B8%E9rV%DFs%DB%D0%F7%00k%FE%1D%84%84%83J%B8%E3%BA%FB%EF%20%84%1C%D7%AD%B0%8E%D7U%C8Y%05%1E%D4t%EF%AD%95Q%BF8w%BF%E9%0A%BF%EB%03%00%00%00%00%00%00%00%00%00%B8vJ%8E%BB%F5%B1u%8Cx%80%E1o%5E%CA9%AB%CB%CB%8E%03%DF%1D%B7T%25%9C%D5(%EFJM8%AB%CC'%D2%B2*%A4s%E7c6%FB%3E%FA%A2%1E%80~%0E%3E%DA%10x%5D%95Uig%15u%15%ED%7C%14%B6%87%A1%3B%FCo8%A8%D8o%D3%ADO%01%EDx%83%1A~%1B%9FpP%A3%DC%C6'%9C%95gK%00%00%00%00%00%00%00%00%00%20%D9%C9%11%D0%C0%40%AF%3F%EE%EE%92%94%D6%16X%B5%BCMH%15%2F%BF%D4%A7%C87%F1%8E%F2%81%AE%AAvzr%DA2%ABV%17%7C%E63%83%E7I%DC%C6%0Bs%1B%EF6%1E%00%00%00%00%00%00%00%00%00%80cr%9CW%FF%7F%C6%01%0E%F1%CE%A5%84%B3%CA%BC%E0%CB%AA%84%CE%F9%BF)%EC%13%08WU%AE%AB%B1%AE%2BO%EC%8E%CBYe%FE%8CN%ABr%5Dy%60~%CFA%0D%F4%AE%D4%BE%C75%CA%EDVB%EA(%B7%F1%09g%E5%D9%12%00%00%00%00%00%00%00%00%00H%F6%EB%13S%E7y%5E%5E%FB%98%F0%22%D1%B2'%A7%F0%92%B1%BC%24z3%AC%7Dm%60%D5%92%B4%7CEUO%5E%F0%AA*%3BU%B9%AE%3E%A0j%94%07%A0%C7%A0%AB%FD%B5%3F%A0%F7%03T%3Dy%D7%F7%D6%D4%C0%AAU%D2%E6%DFt%3F%A8%CC%AA%F2%86%B9%D7%F5%1F%18%E6%01%F8%CC%D5%9E%F0%F3z%88%AA%90%EF%20%00%00%00%00%00%00%00%00%00%C0%A6%D3%EA%CFi%AFb%2C%7BB%0A%2B%C3%1A%D7%06V%D5%07%A8r%5D%3D%D9%A6%CAu%F5%25%CF%A2%99%97zNX%60%95%AB%5DUZ%D5%FBR%03%AB%1C%D4k%9F%3F%BB%5C%FF%81a%AE%AB'%7F%F3%EA%FE%F3z%94%AA%D8%DF%5B%01%00%00%00%00%00%00%00%00%00%8E%FB%F3%F2%B1%1B%8DWU%AAT%A9R%A5J%95*U%AAT%A9R%A5J%95*U%AAT%A9R%A5J%95*U%AAT%A9R%A5J%95*U%AAT%A9R%A5J%95*U%AAT%A9R%A5J%95*U%AAT%A9R%A5J%95*UiU%C7%BBe%E7%F3%B9%CB%AAJ%95*U%AAT%A9R%A5J%95*U%AAT%A9R%A5J%95*U%AAT%A9R%A5J%95*U%AAT%A9R%A5J%95*U%AAT%A9R%A5J%95*U%AAT%A9R%A5J%95*U%AAT%A9R%A5*%AAj%FD%C6%D4%5Eo%90%B5Z%ADV%AB%D5j%B5Z%ADV%AB%D5j%B5Z%ADV%AB%D5j%B5Z%ADV%AB%D5j%B5Z%ADV%AB%D5j%B5Z%ADV%AB%D5j%B5Z%ADV%AB%D5j%B5%86%AF%1B%9F%98%DA%EBm%BBV%AB%D5j%B5Z%ADV%AB%D5j%B5Z%ADV%AB%D5j%B5Z%ADV%AB%D5j%B5Z%ADV%AB%D5j%B5Z%ADV%AB%D5j%B5Z%ADV%AB%D5j%B5Z%AD%D6%E4%F58%01%00%00%00%00%00%00%00%00%00%00%00%00%00%40%85%7F%02%0C%008%C2%D0H%16j%8FX%00%00%00%00IEND%AEB%60%82") repeat-x !important;
    border-top: 1px solid #BBBBBB !important;
    border-right: 1px dashed #BBBBBB !important;
    border-bottom: 1px solid #000000 !important;
}

.firebugRulerV {
    top: 0 !important;
    left: -15px !important;
    width: 14px !important;
    height: 100% !important;
    background: url("data:image/png,%89PNG%0D%0A%1A%0A%00%00%00%0DIHDR%00%00%00%0E%00%00%13%88%08%02%00%00%00%0E%F5%CB%10%00%00%00%04gAMA%00%00%D6%D8%D4OX2%00%00%00%19tEXtSoftware%00Adobe%20ImageReadyq%C9e%3C%00%00%06~IDATx%DA%EC%DD%D1v%A20%14%40Qt%F1%FF%FF%E4%97%D9%07%3BT%19%92%DC%40(%90%EEy%9A5%CB%B6%E8%F6%9Ac%A4%CC0%84%FF%DC%9E%CF%E7%E3%F1%88%DE4%F8%5D%C7%9F%2F%BA%DD%5E%7FI%7D%F18%DDn%BA%C5%FB%DF%97%BFk%F2%10%FF%FD%B4%F2M%A7%FB%FD%FD%B3%22%07p%8F%3F%AE%E3%F4S%8A%8F%40%EEq%9D%BE8D%F0%0EY%A1Uq%B7%EA%1F%81%88V%E8X%3F%B4%CEy%B7h%D1%A2E%EBohU%FC%D9%AF2fO%8BBeD%BE%F7X%0C%97%A4%D6b7%2Ck%A5%12%E3%9B%60v%B7r%C7%1AI%8C%BD%2B%23r%00c0%B2v%9B%AD%CA%26%0C%1Ek%05A%FD%93%D0%2B%A1u%8B%16-%95q%5Ce%DCSO%8E%E4M%23%8B%F7%C2%FE%40%BB%BD%8C%FC%8A%B5V%EBu%40%F9%3B%A72%FA%AE%8C%D4%01%CC%B5%DA%13%9CB%AB%E2I%18%24%B0n%A9%0CZ*Ce%9C%A22%8E%D8NJ%1E%EB%FF%8F%AE%CAP%19*%C3%BAEKe%AC%D1%AAX%8C*%DEH%8F%C5W%A1e%AD%D4%B7%5C%5B%19%C5%DB%0D%EF%9F%19%1D%7B%5E%86%BD%0C%95%A12%AC%5B*%83%96%CAP%19%F62T%86%CAP%19*%83%96%CA%B8Xe%BC%FE)T%19%A1%17xg%7F%DA%CBP%19*%C3%BA%A52T%86%CAP%19%F62T%86%CA%B0n%A9%0CZ%1DV%C6%3D%F3%FCH%DE%B4%B8~%7F%5CZc%F1%D6%1F%AF%84%F9%0F6%E6%EBVt9%0E~%BEr%AF%23%B0%97%A12T%86%CAP%19%B4T%86%CA%B8Re%D8%CBP%19*%C3%BA%A52huX%19%AE%CA%E5%BC%0C%7B%19*CeX%B7h%A9%0C%95%E1%BC%0C%7B%19*CeX%B7T%06%AD%CB%5E%95%2B%BF.%8F%C5%97%D5%E4%7B%EE%82%D6%FB%CF-%9C%FD%B9%CF%3By%7B%19%F62T%86%CA%B0n%D1R%19*%A3%D3%CA%B0%97%A12T%86uKe%D0%EA%B02*%3F1%99%5DB%2B%A4%B5%F8%3A%7C%BA%2B%8Co%7D%5C%EDe%A8%0C%95a%DDR%19%B4T%C66%82fA%B2%ED%DA%9FC%FC%17GZ%06%C9%E1%B3%E5%2C%1A%9FoiB%EB%96%CA%A0%D5qe4%7B%7D%FD%85%F7%5B%ED_%E0s%07%F0k%951%ECr%0D%B5C%D7-g%D1%A8%0C%EB%96%CA%A0%A52T%C6)*%C3%5E%86%CAP%19%D6-%95A%EB*%95q%F8%BB%E3%F9%AB%F6%E21%ACZ%B7%22%B7%9B%3F%02%85%CB%A2%5B%B7%BA%5E%B7%9C%97%E1%BC%0C%EB%16-%95%A12z%AC%0C%BFc%A22T%86uKe%D0%EA%B02V%DD%AD%8A%2B%8CWhe%5E%AF%CF%F5%3B%26%CE%CBh%5C%19%CE%CB%B0%F3%A4%095%A1%CAP%19*Ce%A8%0C%3BO*Ce%A8%0C%95%A12%3A%AD%8C%0A%82%7B%F0v%1F%2FD%A9%5B%9F%EE%EA%26%AF%03%CA%DF9%7B%19*Ce%A8%0C%95%A12T%86%CA%B8Ze%D8%CBP%19*Ce%A8%0C%95%D1ae%EC%F7%89I%E1%B4%D7M%D7P%8BjU%5C%BB%3E%F2%20%D8%CBP%19*Ce%A8%0C%95%A12T%C6%D5*%C3%5E%86%CAP%19*Ce%B4O%07%7B%F0W%7Bw%1C%7C%1A%8C%B3%3B%D1%EE%AA%5C%D6-%EBV%83%80%5E%D0%CA%10%5CU%2BD%E07YU%86%CAP%19*%E3%9A%95%91%D9%A0%C8%AD%5B%EDv%9E%82%FFKOee%E4%8FUe%A8%0C%95%A12T%C6%1F%A9%8C%C8%3D%5B%A5%15%FD%14%22r%E7B%9F%17l%F8%BF%ED%EAf%2B%7F%CF%ECe%D8%CBP%19*Ce%A8%0C%95%E1%93~%7B%19%F62T%86%CAP%19*Ce%A8%0C%E7%13%DA%CBP%19*Ce%A8%0CZf%8B%16-Z%B4h%D1R%19f%8B%16-Z%B4h%D1R%19%B4%CC%16-Z%B4h%D1R%19%B4%CC%16-Z%B4h%D1%A2%A52%CC%16-Z%B4h%D1%A2%A52h%99-Z%B4h%D1%A2%A52h%99-Z%B4h%D1%A2EKe%98-Z%B4h%D1%A2EKe%D02%5B%B4h%D1%A2EKe%D02%5B%B4h%D1%A2E%8B%96%CA0%5B%B4h%D1%A2E%8B%96%CA%A0e%B6h%D1%A2E%8B%96%CA%A0e%B6h%D1%A2E%8B%16-%95a%B6h%D1%A2E%8B%16-%95A%CBl%D1%A2E%8B%16-%95A%CBl%D1%A2E%8B%16-Z*%C3l%D1%A2E%8B%16-Z*%83%96%D9%A2E%8B%16-Z*%83%96%D9%A2E%8B%16-Z%B4T%86%D9%A2E%8B%16-Z%B4T%06-%B3E%8B%16-Z%B4T%06-%B3E%8B%16-Z%B4h%A9%0C%B3E%8B%16-Z%B4h%A9%0CZf%8B%16-Z%B4h%A9%0CZf%8B%16-Z%B4h%D1R%19f%8B%16-Z%B4h%D1R%19%B4%CC%16-Z%B4h%D1R%19%B4%CC%16-Z%B4h%D1%A2%A52%CC%16-Z%B4h%D1%A2%A52h%99-Z%B4h%D1%A2%A52h%99-Z%B4h%D1%A2EKe%98-Z%B4h%D1%A2EKe%D02%5B%B4h%D1%A2EKe%D02%5B%B4h%D1%A2E%8B%96%CA0%5B%B4h%D1%A2E%8B%96%CA%A0e%B6h%D1%A2E%8B%96%CA%A0e%B6h%D1%A2E%8B%16-%95a%B6h%D1%A2E%8B%16-%95A%CBl%D1%A2E%8B%16-%95A%CBl%D1%A2E%8B%16-Z*%C3l%D1%A2E%8B%16-Z*%83%96%D9%A2E%8B%16-Z*%83%96%D9%A2E%8B%16-Z%B4T%86%D9%A2E%8B%16-Z%B4T%06-%B3E%8B%16-Z%B4T%06-%B3E%8B%16-Z%B4h%A9%0C%B3E%8B%16-Z%B4h%A9%0CZf%8B%16-Z%B4h%A9%0CZf%8B%16-Z%B4h%D1R%19f%8B%16-Z%B4h%D1R%19%B4%CC%16-Z%B4h%D1R%19%B4%CC%16-Z%B4h%D1%A2%A52%CC%16-Z%B4h%D1%A2%A52h%99-Z%B4h%D1%A2%A52h%99-Z%B4h%D1%A2EKe%98-Z%B4h%D1%A2EKe%D02%5B%B4h%D1%A2EKe%D02%5B%B4h%D1%A2E%8B%96%CA0%5B%B4h%D1%A2E%8B%96%CA%A0e%B6h%D1%A2E%8B%96%CA%A0e%B6h%D1%A2E%8B%16-%95a%B6h%D1%A2E%8B%16-%95A%CBl%D1%A2E%8B%16-%95A%CBl%D1%A2E%8B%16-Z*%C3l%D1%A2E%8B%16-Z*%83%96%D9%A2E%8B%16-Z*%83%96%D9%A2E%8B%16-Z%B4T%86%D9%A2E%8B%16-Z%B4T%06-%B3E%8B%16-Z%B4%AE%A4%F5%25%C0%00%DE%BF%5C'%0F%DA%B8q%00%00%00%00IEND%AEB%60%82") repeat-y !important;
    border-left: 1px solid #BBBBBB !important;
    border-right: 1px solid #000000 !important;
    border-bottom: 1px dashed #BBBBBB !important;
}

.overflowRulerX &gt; .firebugRulerV {
    left: 0 !important;
}

.overflowRulerY &gt; .firebugRulerH {
    top: 0 !important;
}

/* * * * * * * * * * * * * * * * * * * * * * * * * * * * * * * * * * * * * * * * * * * * * * * * */
.fbProxyElement {
    position: fixed !important;
    pointer-events: auto !important;
}
</style></svg>