<?xml version="1.0" encoding="utf-8"?>
<!-- Generator: Adobe Illustrator 19.0.0, SVG Export Plug-In . SVG Version: 6.00 Build 0)  -->
<svg version="1.1" id="Layer_1" xmlns="http://www.w3.org/2000/svg" xmlns:xlink="http://www.w3.org/1999/xlink" x="0px" y="0px"
	 viewBox="0 0 72 72" style="enable-background:new 0 0 72 72;" xml:space="preserve">
<style type="text/css">
	.st0{fill:none;stroke:#1A1A1A;stroke-width:2;stroke-linecap:round;stroke-linejoin:round;}
	.st1{fill:none;stroke:#1A1A1A;stroke-width:2;stroke-linejoin:round;}
</style>
<g id="XMLID_2_">
	<path id="XMLID_12_" class="st0" d="M23.3,58.2c0,0,3.1-4,7-4c3.9,0,7,4,7,4H23.3z"/>
	<path id="XMLID_11_" class="st0" d="M37.3,58.2c0,0,3.1-4,7-4c3.9,0,7,4,7,4H37.3z"/>
	<path id="XMLID_10_" class="st0" d="M51.3,58.2c0,0,3.1-4,7-4c3.9,0,7,4,7,4H51.3z"/>
	<polyline id="XMLID_9_" class="st1" points="21.3,42.2 57.3,42.2 57.3,14.2 16.3,14.2 	"/>
	<circle id="XMLID_8_" class="st1" cx="16.3" cy="18.2" r="4"/>
	<path id="XMLID_7_" class="st0" d="M11.3,30.2v24h10V29.7c0-0.8,0.7-1.5,1.5-1.5h8.5c2.2,0,4-1.8,4-4h-15l-4,4l-4-4l-2.6,0.7
		c-1.4,0.5-2.4,1.8-2.4,3.3v8c0,2.2,1.8,4,4,4"/>
	<line id="XMLID_6_" class="st0" x1="16.3" y1="40.2" x2="16.3" y2="54.2"/>
	<circle id="XMLID_5_" class="st1" cx="30.3" cy="50.2" r="4"/>
	<circle id="XMLID_4_" class="st1" cx="44.3" cy="50.2" r="4"/>
	<circle id="XMLID_3_" class="st1" cx="58.3" cy="50.2" r="4"/>
</g>
</svg>
