<?xml version="1.0" encoding="utf-8"?>
<!-- Generator: Adobe Illustrator 19.0.0, SVG Export Plug-In . SVG Version: 6.00 Build 0)  -->
<svg version="1.1" id="Layer_1" xmlns="http://www.w3.org/2000/svg" xmlns:xlink="http://www.w3.org/1999/xlink" x="0px" y="0px"
	 viewBox="-398 231.8 161.2 99.2" style="enable-background:new -398 231.8 161.2 99.2;" xml:space="preserve">
<g id="XMLID_2_">
	<rect id="XMLID_116_" x="-306.8" y="322.4" width="2" height="2"/>
	<rect id="XMLID_115_" x="-318.8" y="322.4" width="2" height="2"/>
	<rect id="XMLID_114_" x="-354.8" y="322.4" width="2" height="2"/>
	<rect id="XMLID_113_" x="-342.8" y="322.4" width="2" height="2"/>
	<rect id="XMLID_112_" x="-330.8" y="322.4" width="2" height="2"/>
	<rect id="XMLID_111_" x="-366.8" y="322.4" width="2" height="2"/>
	<rect id="XMLID_110_" x="-378.8" y="322.4" width="2" height="2"/>
	<rect id="XMLID_109_" x="-390.8" y="322.4" width="2" height="2"/>
	<g id="XMLID_3_">
		<g id="XMLID_81_">
			<g id="XMLID_106_">
				<path id="XMLID_107_" d="M-342.8,284h2.3v6.4h-2.3V284z"/>
			</g>
			<g id="XMLID_103_">
				<path id="XMLID_104_" d="M-332.7,284h2.2l2.1,3.5h0.1c-0.1-0.5-0.2-1.1-0.2-1.6V284h2.2v6.4h-2.2l-2-3.3h-0.1
					c0.1,0.4,0.1,0.9,0.1,1.3v2.1h-2.2V284z"/>
			</g>
			<g id="XMLID_100_">
				<path id="XMLID_101_" d="M-319.4,288.1l0.1,0.1c0.4,0.3,0.9,0.6,1.4,0.6c0.2,0,0.6-0.1,0.6-0.4c0-0.3-0.3-0.3-0.5-0.4l-0.5-0.1
					c-0.9-0.2-1.7-0.7-1.7-1.7c0-1.5,1.4-2.4,2.8-2.4c0.7,0,1.4,0.2,2,0.6l-0.6,1.6c-0.4-0.3-0.8-0.5-1.3-0.5
					c-0.2,0-0.5,0.1-0.5,0.3s0.3,0.3,0.5,0.3l0.5,0.1c1,0.2,1.7,0.7,1.7,1.8c0,1.5-1.4,2.3-2.8,2.3c-0.8,0-1.7-0.2-2.5-0.6
					L-319.4,288.1z"/>
			</g>
			<g id="XMLID_97_">
				<path id="XMLID_98_" d="M-307.7,284h4.9v2.1l-1.3-0.1v4.4h-2.3V286l-1.3,0.1C-307.7,286.1-307.7,284-307.7,284z"/>
			</g>
			<g id="XMLID_94_">
				<path id="XMLID_95_" d="M-294.8,284h2.3v6.4h-2.3V284z"/>
			</g>
			<g id="XMLID_91_">
				<path id="XMLID_92_" d="M-284.2,284h4.9v2.1l-1.3-0.1v4.4h-2.4V286l-1.3,0.1L-284.2,284L-284.2,284z"/>
			</g>
			<g id="XMLID_88_">
				<path id="XMLID_89_" d="M-266.4,284v3.8c0,1.9-1.2,2.7-3,2.7s-3-0.8-3-2.7V284h2.3v3.6c0,0.5,0,0.9,0.6,0.9
					c0.6,0,0.6-0.4,0.6-0.9V284H-266.4z"/>
			</g>
			<g id="XMLID_85_">
				<path id="XMLID_86_" d="M-260.2,284h4.9v2.1l-1.3-0.1v4.4h-2.4V286l-1.3,0.1L-260.2,284L-260.2,284z"/>
			</g>
			<g id="XMLID_82_">
				<path id="XMLID_83_" d="M-247.8,284h4.3v1.8h-2v0.6h1.8v1.7h-1.8v0.6h2v1.7h-4.4L-247.8,284L-247.8,284z"/>
			</g>
		</g>
		<g id="XMLID_61_">
			<g id="XMLID_78_">
				<path id="XMLID_79_" d="M-340.4,257.1v11.4c0,5.6-3.5,8.2-8.9,8.2c-5.4,0-8.9-2.6-8.9-8.2v-11.4h7v10.7c0,1.5,0.1,2.8,1.9,2.8
					c1.9,0,1.9-1.3,1.9-2.8v-10.7H-340.4z"/>
			</g>
			<g id="XMLID_74_">
				<path id="XMLID_75_" d="M-333.1,257.1h8.5c4.4,0,8,1.8,8,6.7c0,2.9-1.1,4.2-3.7,5v0.2c0.4,0.3,0.8,0.6,1.2,1.2l4.2,6.3h-8.1
					l-3.1-6.2h-0.1v6.2h-6.9V257.1z M-326.3,265.6h0.5c1.2,0,2.3-0.2,2.3-1.6c0-1.5-1.1-1.7-2.3-1.7h-0.5V265.6z"/>
			</g>
			<g id="XMLID_69_">
				<path id="XMLID_70_" d="M-309.6,257.1h8.2c3.7,0,7.6,0.9,7.6,5.4c0,1.7-0.8,3.4-2.5,3.9v0.2c2.1,0.7,3.4,2.3,3.4,4.6
					c0,4-3.7,5.3-7.1,5.3h-9.6V257.1z M-302.4,264.5c1,0,2.2-0.1,2.2-1.4c0-1.4-1.3-1.3-2.3-1.3h-0.5v2.8h0.6V264.5z M-303.1,271.8
					h0.8c1.2,0,2.8,0,2.8-1.6c0-1.6-1.8-1.6-2.9-1.6h-0.7C-303.1,268.6-303.1,271.8-303.1,271.8z"/>
			</g>
			<g id="XMLID_65_">
				<path id="XMLID_66_" d="M-281.5,276.4h-7.4l6.7-19.3h7.8l6.9,19.3h-7.5l-0.6-2.4h-5.3L-281.5,276.4z M-276.9,269.4l-0.8-3.4
					c-0.2-0.8-0.3-1.7-0.5-2.5h-0.3l-1.3,5.9H-276.9z"/>
			</g>
			<g id="XMLID_62_">
				<path id="XMLID_63_" d="M-262.9,257.1h6.7l6.3,10.7h0.2c-0.3-1.6-0.6-3.3-0.6-4.9v-5.8h6.7v19.3h-6.7l-6.2-10.2h-0.2
					c0.2,1.3,0.4,2.6,0.4,3.9v6.3h-6.7v-19.3H-262.9z"/>
			</g>
		</g>
		<g id="XMLID_4_">
			<rect id="XMLID_60_" x="-318.8" y="250.4" width="2" height="2"/>
			<rect id="XMLID_59_" x="-306.8" y="250.4" width="2" height="2"/>
			<rect id="XMLID_58_" x="-354.8" y="250.4" width="2" height="2"/>
			<rect id="XMLID_57_" x="-342.8" y="250.4" width="2" height="2"/>
			<rect id="XMLID_56_" x="-330.8" y="250.4" width="2" height="2"/>
			<rect id="XMLID_55_" x="-366.8" y="250.4" width="2" height="2"/>
			<rect id="XMLID_54_" x="-318.8" y="298.4" width="2" height="2"/>
			<rect id="XMLID_53_" x="-306.8" y="298.4" width="2" height="2"/>
			<rect id="XMLID_52_" x="-354.8" y="298.4" width="2" height="2"/>
			<rect id="XMLID_51_" x="-342.8" y="298.4" width="2" height="2"/>
			<rect id="XMLID_50_" x="-330.8" y="298.4" width="2" height="2"/>
			<rect id="XMLID_49_" x="-366.8" y="298.4" width="2" height="2"/>
			<rect id="XMLID_48_" x="-366.8" y="286.4" width="2" height="2"/>
			<rect id="XMLID_47_" x="-366.8" y="274.4" width="2" height="2"/>
			<rect id="XMLID_46_" x="-366.8" y="262.4" width="2" height="2"/>
			<rect id="XMLID_45_" x="-330.8" y="250.4" width="2" height="2"/>
			<rect id="XMLID_44_" x="-318.8" y="250.4" width="2" height="2"/>
			<rect id="XMLID_43_" x="-306.8" y="250.4" width="2" height="2"/>
			<rect id="XMLID_42_" x="-366.8" y="250.4" width="2" height="2"/>
			<rect id="XMLID_41_" x="-354.8" y="250.4" width="2" height="2"/>
			<rect id="XMLID_40_" x="-342.8" y="250.4" width="2" height="2"/>
			<rect id="XMLID_39_" x="-378.8" y="250.4" width="2" height="2"/>
			<rect id="XMLID_38_" x="-378.8" y="298.4" width="2" height="2"/>
			<rect id="XMLID_37_" x="-378.8" y="286.4" width="2" height="2"/>
			<rect id="XMLID_36_" x="-378.8" y="274.4" width="2" height="2"/>
			<rect id="XMLID_35_" x="-378.8" y="262.4" width="2" height="2"/>
			<rect id="XMLID_34_" x="-342.8" y="250.4" width="2" height="2"/>
			<rect id="XMLID_33_" x="-330.8" y="250.4" width="2" height="2"/>
			<rect id="XMLID_32_" x="-318.8" y="250.4" width="2" height="2"/>
			<rect id="XMLID_31_" x="-306.8" y="250.4" width="2" height="2"/>
			<rect id="XMLID_30_" x="-378.8" y="250.4" width="2" height="2"/>
			<rect id="XMLID_29_" x="-366.8" y="250.4" width="2" height="2"/>
			<rect id="XMLID_28_" x="-354.8" y="250.4" width="2" height="2"/>
			<rect id="XMLID_27_" x="-318.8" y="310.4" width="2" height="2"/>
			<rect id="XMLID_26_" x="-306.8" y="310.4" width="2" height="2"/>
			<rect id="XMLID_25_" x="-354.8" y="310.4" width="2" height="2"/>
			<rect id="XMLID_24_" x="-342.8" y="310.4" width="2" height="2"/>
			<rect id="XMLID_23_" x="-330.8" y="310.4" width="2" height="2"/>
			<rect id="XMLID_22_" x="-366.8" y="310.4" width="2" height="2"/>
			<rect id="XMLID_21_" x="-378.8" y="310.4" width="2" height="2"/>
			<rect id="XMLID_20_" x="-390.8" y="250.4" width="2" height="2"/>
			<rect id="XMLID_19_" x="-390.8" y="298.4" width="2" height="2"/>
			<rect id="XMLID_18_" x="-390.8" y="310.4" width="2" height="2"/>
			<rect id="XMLID_17_" x="-390.8" y="286.4" width="2" height="2"/>
			<rect id="XMLID_16_" x="-390.8" y="274.4" width="2" height="2"/>
			<rect id="XMLID_15_" x="-390.8" y="262.4" width="2" height="2"/>
			<rect id="XMLID_14_" x="-354.8" y="286.4" width="2" height="2"/>
			<g id="XMLID_5_">
				<rect id="XMLID_13_" x="-318.8" y="238.4" width="2" height="2"/>
				<rect id="XMLID_12_" x="-306.8" y="238.4" width="2" height="2"/>
				<rect id="XMLID_11_" x="-354.8" y="238.4" width="2" height="2"/>
				<rect id="XMLID_10_" x="-342.8" y="238.4" width="2" height="2"/>
				<rect id="XMLID_9_" x="-330.8" y="238.4" width="2" height="2"/>
				<rect id="XMLID_8_" x="-366.8" y="238.4" width="2" height="2"/>
				<rect id="XMLID_7_" x="-378.8" y="238.4" width="2" height="2"/>
				<rect id="XMLID_6_" x="-390.8" y="238.4" width="2" height="2"/>
			</g>
		</g>
	</g>
</g>
</svg>
