<?xml version="1.0" encoding="utf-8"?>
<!-- Generator: Adobe Illustrator 19.0.0, SVG Export Plug-In . SVG Version: 6.00 Build 0)  -->
<svg version="1.1" id="Layer_1" xmlns="http://www.w3.org/2000/svg" xmlns:xlink="http://www.w3.org/1999/xlink" x="0px" y="0px"
	 viewBox="0 0 161.2 99.2" style="enable-background:new 0 0 161.2 99.2;" xml:space="preserve">
<style type="text/css">
	.st0{fill:#FFFFFF;}
</style>
<g id="XMLID_2_">
	<rect id="XMLID_116_" x="91.2" y="90.6" class="st0" width="2" height="2"/>
	<rect id="XMLID_115_" x="79.2" y="90.6" class="st0" width="2" height="2"/>
	<rect id="XMLID_114_" x="43.2" y="90.6" class="st0" width="2" height="2"/>
	<rect id="XMLID_113_" x="55.2" y="90.6" class="st0" width="2" height="2"/>
	<rect id="XMLID_112_" x="67.2" y="90.6" class="st0" width="2" height="2"/>
	<rect id="XMLID_111_" x="31.2" y="90.6" class="st0" width="2" height="2"/>
	<rect id="XMLID_110_" x="19.2" y="90.6" class="st0" width="2" height="2"/>
	<rect id="XMLID_109_" x="7.2" y="90.6" class="st0" width="2" height="2"/>
	<g id="XMLID_3_">
		<g id="XMLID_81_">
			<g id="XMLID_106_">
				<path id="XMLID_107_" class="st0" d="M55.2,52.2h2.3v6.4h-2.3V52.2z"/>
			</g>
			<g id="XMLID_103_">
				<path id="XMLID_104_" class="st0" d="M65.3,52.2h2.2l2.1,3.5h0.1c-0.1-0.5-0.2-1.1-0.2-1.6v-1.9h2.2v6.4h-2.2l-2-3.3h-0.1
					c0.1,0.4,0.1,0.9,0.1,1.3v2.1h-2.2V52.2z"/>
			</g>
			<g id="XMLID_100_">
				<path id="XMLID_101_" class="st0" d="M78.6,56.3l0.1,0.1c0.4,0.3,0.9,0.6,1.4,0.6c0.2,0,0.6-0.1,0.6-0.4c0-0.3-0.3-0.3-0.5-0.4
					l-0.5-0.1c-0.9-0.2-1.7-0.7-1.7-1.7c0-1.5,1.4-2.4,2.8-2.4c0.7,0,1.4,0.2,2,0.6l-0.6,1.6c-0.4-0.3-0.8-0.5-1.3-0.5
					c-0.2,0-0.5,0.1-0.5,0.3c0,0.2,0.3,0.3,0.5,0.3l0.5,0.1c1,0.2,1.7,0.7,1.7,1.8c0,1.5-1.4,2.3-2.8,2.3c-0.8,0-1.7-0.2-2.5-0.6
					L78.6,56.3z"/>
			</g>
			<g id="XMLID_97_">
				<path id="XMLID_98_" class="st0" d="M90.3,52.2h4.9v2.1l-1.3-0.1v4.4h-2.3v-4.4l-1.3,0.1V52.2z"/>
			</g>
			<g id="XMLID_94_">
				<path id="XMLID_95_" class="st0" d="M103.2,52.2h2.3v6.4h-2.3V52.2z"/>
			</g>
			<g id="XMLID_91_">
				<path id="XMLID_92_" class="st0" d="M113.8,52.2h4.9v2.1l-1.3-0.1v4.4H115v-4.4l-1.3,0.1V52.2z"/>
			</g>
			<g id="XMLID_88_">
				<path id="XMLID_89_" class="st0" d="M131.6,52.2V56c0,1.9-1.2,2.7-3,2.7c-1.8,0-3-0.8-3-2.7v-3.8h2.3v3.6c0,0.5,0,0.9,0.6,0.9
					s0.6-0.4,0.6-0.9v-3.6H131.6z"/>
			</g>
			<g id="XMLID_85_">
				<path id="XMLID_86_" class="st0" d="M137.8,52.2h4.9v2.1l-1.3-0.1v4.4H139v-4.4l-1.3,0.1V52.2z"/>
			</g>
			<g id="XMLID_82_">
				<path id="XMLID_83_" class="st0" d="M150.2,52.2h4.3V54h-2v0.6h1.8v1.7h-1.8v0.6h2v1.7h-4.4V52.2z"/>
			</g>
		</g>
		<g id="XMLID_61_">
			<g id="XMLID_78_">
				<path id="XMLID_79_" class="st0" d="M57.6,25.3v11.4c0,5.6-3.5,8.2-8.9,8.2s-8.9-2.6-8.9-8.2V25.3h7V36c0,1.5,0.1,2.8,1.9,2.8
					c1.9,0,1.9-1.3,1.9-2.8V25.3H57.6z"/>
			</g>
			<g id="XMLID_74_">
				<path id="XMLID_75_" class="st0" d="M64.9,25.3h8.5c4.4,0,8,1.8,8,6.7c0,2.9-1.1,4.2-3.7,5v0.2c0.4,0.3,0.8,0.6,1.2,1.2l4.2,6.3
					h-8.1l-3.1-6.2h-0.1v6.2h-6.9V25.3z M71.7,33.8h0.5c1.2,0,2.3-0.2,2.3-1.6c0-1.5-1.1-1.7-2.3-1.7h-0.5V33.8z"/>
			</g>
			<g id="XMLID_69_">
				<path id="XMLID_70_" class="st0" d="M88.4,25.3h8.2c3.7,0,7.6,0.9,7.6,5.4c0,1.7-0.8,3.4-2.5,3.9v0.2c2.1,0.7,3.4,2.3,3.4,4.6
					c0,4-3.7,5.3-7.1,5.3h-9.6V25.3z M95.6,32.7c1,0,2.2-0.1,2.2-1.4c0-1.4-1.3-1.3-2.3-1.3h-0.5v2.8H95.6z M94.9,40h0.8
					c1.2,0,2.8,0,2.8-1.6c0-1.6-1.8-1.6-2.9-1.6h-0.7V40z"/>
			</g>
			<g id="XMLID_65_">
				<path id="XMLID_66_" class="st0" d="M116.5,44.6h-7.4l6.7-19.3h7.8l6.9,19.3H123l-0.6-2.4h-5.3L116.5,44.6z M121.1,37.6
					l-0.8-3.4c-0.2-0.8-0.3-1.7-0.5-2.5h-0.3l-1.3,5.9H121.1z"/>
			</g>
			<g id="XMLID_62_">
				<path id="XMLID_63_" class="st0" d="M135.1,25.3h6.7l6.3,10.7h0.2c-0.3-1.6-0.6-3.3-0.6-4.9v-5.8h6.7v19.3h-6.7l-6.2-10.2h-0.2
					c0.2,1.3,0.4,2.6,0.4,3.9v6.3h-6.7V25.3z"/>
			</g>
		</g>
		<g id="XMLID_4_">
			<rect id="XMLID_60_" x="79.2" y="18.6" class="st0" width="2" height="2"/>
			<rect id="XMLID_59_" x="91.2" y="18.6" class="st0" width="2" height="2"/>
			<rect id="XMLID_58_" x="43.2" y="18.6" class="st0" width="2" height="2"/>
			<rect id="XMLID_57_" x="55.2" y="18.6" class="st0" width="2" height="2"/>
			<rect id="XMLID_56_" x="67.2" y="18.6" class="st0" width="2" height="2"/>
			<rect id="XMLID_55_" x="31.2" y="18.6" class="st0" width="2" height="2"/>
			<rect id="XMLID_54_" x="79.2" y="66.6" class="st0" width="2" height="2"/>
			<rect id="XMLID_53_" x="91.2" y="66.6" class="st0" width="2" height="2"/>
			<rect id="XMLID_52_" x="43.2" y="66.6" class="st0" width="2" height="2"/>
			<rect id="XMLID_51_" x="55.2" y="66.6" class="st0" width="2" height="2"/>
			<rect id="XMLID_50_" x="67.2" y="66.6" class="st0" width="2" height="2"/>
			<rect id="XMLID_49_" x="31.2" y="66.6" class="st0" width="2" height="2"/>
			<rect id="XMLID_48_" x="31.2" y="54.6" class="st0" width="2" height="2"/>
			<rect id="XMLID_47_" x="31.2" y="42.6" class="st0" width="2" height="2"/>
			<rect id="XMLID_46_" x="31.2" y="30.6" class="st0" width="2" height="2"/>
			<rect id="XMLID_45_" x="67.2" y="18.6" class="st0" width="2" height="2"/>
			<rect id="XMLID_44_" x="79.2" y="18.6" class="st0" width="2" height="2"/>
			<rect id="XMLID_43_" x="91.2" y="18.6" class="st0" width="2" height="2"/>
			<rect id="XMLID_42_" x="31.2" y="18.6" class="st0" width="2" height="2"/>
			<rect id="XMLID_41_" x="43.2" y="18.6" class="st0" width="2" height="2"/>
			<rect id="XMLID_40_" x="55.2" y="18.6" class="st0" width="2" height="2"/>
			<rect id="XMLID_39_" x="19.2" y="18.6" class="st0" width="2" height="2"/>
			<rect id="XMLID_38_" x="19.2" y="66.6" class="st0" width="2" height="2"/>
			<rect id="XMLID_37_" x="19.2" y="54.6" class="st0" width="2" height="2"/>
			<rect id="XMLID_36_" x="19.2" y="42.6" class="st0" width="2" height="2"/>
			<rect id="XMLID_35_" x="19.2" y="30.6" class="st0" width="2" height="2"/>
			<rect id="XMLID_34_" x="55.2" y="18.6" class="st0" width="2" height="2"/>
			<rect id="XMLID_33_" x="67.2" y="18.6" class="st0" width="2" height="2"/>
			<rect id="XMLID_32_" x="79.2" y="18.6" class="st0" width="2" height="2"/>
			<rect id="XMLID_31_" x="91.2" y="18.6" class="st0" width="2" height="2"/>
			<rect id="XMLID_30_" x="19.2" y="18.6" class="st0" width="2" height="2"/>
			<rect id="XMLID_29_" x="31.2" y="18.6" class="st0" width="2" height="2"/>
			<rect id="XMLID_28_" x="43.2" y="18.6" class="st0" width="2" height="2"/>
			<rect id="XMLID_27_" x="79.2" y="78.6" class="st0" width="2" height="2"/>
			<rect id="XMLID_26_" x="91.2" y="78.6" class="st0" width="2" height="2"/>
			<rect id="XMLID_25_" x="43.2" y="78.6" class="st0" width="2" height="2"/>
			<rect id="XMLID_24_" x="55.2" y="78.6" class="st0" width="2" height="2"/>
			<rect id="XMLID_23_" x="67.2" y="78.6" class="st0" width="2" height="2"/>
			<rect id="XMLID_22_" x="31.2" y="78.6" class="st0" width="2" height="2"/>
			<rect id="XMLID_21_" x="19.2" y="78.6" class="st0" width="2" height="2"/>
			<rect id="XMLID_20_" x="7.2" y="18.6" class="st0" width="2" height="2"/>
			<rect id="XMLID_19_" x="7.2" y="66.6" class="st0" width="2" height="2"/>
			<rect id="XMLID_18_" x="7.2" y="78.6" class="st0" width="2" height="2"/>
			<rect id="XMLID_17_" x="7.2" y="54.6" class="st0" width="2" height="2"/>
			<rect id="XMLID_16_" x="7.2" y="42.6" class="st0" width="2" height="2"/>
			<rect id="XMLID_15_" x="7.2" y="30.6" class="st0" width="2" height="2"/>
			<rect id="XMLID_14_" x="43.2" y="54.6" class="st0" width="2" height="2"/>
			<g id="XMLID_5_">
				<rect id="XMLID_13_" x="79.2" y="6.6" class="st0" width="2" height="2"/>
				<rect id="XMLID_12_" x="91.2" y="6.6" class="st0" width="2" height="2"/>
				<rect id="XMLID_11_" x="43.2" y="6.6" class="st0" width="2" height="2"/>
				<rect id="XMLID_10_" x="55.2" y="6.6" class="st0" width="2" height="2"/>
				<rect id="XMLID_9_" x="67.2" y="6.6" class="st0" width="2" height="2"/>
				<rect id="XMLID_8_" x="31.2" y="6.6" class="st0" width="2" height="2"/>
				<rect id="XMLID_7_" x="19.2" y="6.6" class="st0" width="2" height="2"/>
				<rect id="XMLID_6_" x="7.2" y="6.6" class="st0" width="2" height="2"/>
			</g>
		</g>
	</g>
</g>
</svg>
